<mxfile host="app.diagrams.net" modified="2024-10-26T19:30:00.000Z" agent="5.0" version="22.0.3">
  <diagram name="Contact Page Wireframe" id="contact-page">
    <mxGraphModel dx="1422" dy="794" grid="1" gridSize="10" guides="1" tooltips="1" connect="1" arrows="1" fold="1" page="1" pageScale="1" pageWidth="827" pageHeight="1169" math="0" shadow="0">
      <root>
        <mxCell id="0"/>
        <mxCell id="1" parent="0"/>
        
        <!-- Header Navigation -->
        <mxCell id="header-5" value="HEADER NAVIGATION" style="rounded=0;whiteSpace=wrap;html=1;fillColor=none;strokeColor=#000000;fontFamily=Arial;fontSize=12;fontStyle=1;align=center;" vertex="1" parent="1">
          <mxGeometry x="80" y="40" width="667" height="60" as="geometry"/>
        </mxCell>
        <mxCell id="logo-5" value="LOGO" style="rounded=0;whiteSpace=wrap;html=1;fillColor=none;strokeColor=#000000;fontFamily=Arial;fontSize=10;align=center;" vertex="1" parent="1">
          <mxGeometry x="100" y="50" width="80" height="40" as="geometry"/>
        </mxCell>
        <mxCell id="nav-5" value="Home | About | Services | Gallery | Contact" style="rounded=0;whiteSpace=wrap;html=1;fillColor=none;strokeColor=#000000;fontFamily=Arial;fontSize=10;align=center;" vertex="1" parent="1">
          <mxGeometry x="450" y="50" width="280" height="40" as="geometry"/>
        </mxCell>
        
        <!-- Page Header -->
        <mxCell id="page-header-5" value="CONTACT PAGE HEADER" style="rounded=0;whiteSpace=wrap;html=1;fillColor=none;strokeColor=#000000;fontFamily=Arial;fontSize=14;fontStyle=1;align=center;" vertex="1" parent="1">
          <mxGeometry x="80" y="120" width="667" height="80" as="geometry"/>
        </mxCell>
        <mxCell id="page-title-5" value="Contact Us&#10;Subtitle: We'd love to hear from you. Get in touch today!" style="rounded=0;whiteSpace=wrap;html=1;fillColor=none;strokeColor=#000000;fontFamily=Arial;fontSize=12;align=center;" vertex="1" parent="1">
          <mxGeometry x="100" y="130" width="627" height="60" as="geometry"/>
        </mxCell>
        
        <!-- Contact Information Section -->
        <mxCell id="contact-info-section" value="CONTACT INFORMATION" style="rounded=0;whiteSpace=wrap;html=1;fillColor=none;strokeColor=#000000;fontFamily=Arial;fontSize=12;fontStyle=1;align=center;" vertex="1" parent="1">
          <mxGeometry x="80" y="220" width="320" height="200" as="geometry"/>
        </mxCell>
        <mxCell id="office-info" value="Our Office&#10;&#10;📍 Address:&#10;123 Business Street&#10;Suite 100&#10;City, State 12345&#10;&#10;📞 Phone: (555) 123-4567&#10;📧 Email: info@techsolutions.com&#10;&#10;🕒 Business Hours:&#10;Monday - Friday: 9AM - 6PM&#10;Saturday: 10AM - 4PM&#10;Sunday: Closed" style="rounded=0;whiteSpace=wrap;html=1;fillColor=none;strokeColor=#000000;fontFamily=Arial;fontSize=10;align=left;verticalAlign=top;" vertex="1" parent="1">
          <mxGeometry x="100" y="240" width="280" height="160" as="geometry"/>
        </mxCell>
        
        <!-- Contact Form Section -->
        <mxCell id="contact-form-section" value="CONTACT FORM" style="rounded=0;whiteSpace=wrap;html=1;fillColor=none;strokeColor=#000000;fontFamily=Arial;fontSize=12;fontStyle=1;align=center;" vertex="1" parent="1">
          <mxGeometry x="420" y="220" width="327" height="300" as="geometry"/>
        </mxCell>
        <mxCell id="form-title" value="Send us a Message" style="rounded=0;whiteSpace=wrap;html=1;fillColor=none;strokeColor=#000000;fontFamily=Arial;fontSize=11;fontStyle=1;align=center;" vertex="1" parent="1">
          <mxGeometry x="440" y="240" width="287" height="30" as="geometry"/>
        </mxCell>
        <mxCell id="name-field" value="Full Name *" style="rounded=0;whiteSpace=wrap;html=1;fillColor=#f9f9f9;strokeColor=#000000;fontFamily=Arial;fontSize=10;align=left;" vertex="1" parent="1">
          <mxGeometry x="440" y="280" width="287" height="30" as="geometry"/>
        </mxCell>
        <mxCell id="email-field" value="Email Address *" style="rounded=0;whiteSpace=wrap;html=1;fillColor=#f9f9f9;strokeColor=#000000;fontFamily=Arial;fontSize=10;align=left;" vertex="1" parent="1">
          <mxGeometry x="440" y="320" width="287" height="30" as="geometry"/>
        </mxCell>
        <mxCell id="phone-field" value="Phone Number" style="rounded=0;whiteSpace=wrap;html=1;fillColor=#f9f9f9;strokeColor=#000000;fontFamily=Arial;fontSize=10;align=left;" vertex="1" parent="1">
          <mxGeometry x="440" y="360" width="287" height="30" as="geometry"/>
        </mxCell>
        <mxCell id="subject-field" value="Subject *" style="rounded=0;whiteSpace=wrap;html=1;fillColor=#f9f9f9;strokeColor=#000000;fontFamily=Arial;fontSize=10;align=left;" vertex="1" parent="1">
          <mxGeometry x="440" y="400" width="287" height="30" as="geometry"/>
        </mxCell>
        <mxCell id="message-field" value="Message *&#10;&#10;Please tell us about your project..." style="rounded=0;whiteSpace=wrap;html=1;fillColor=#f9f9f9;strokeColor=#000000;fontFamily=Arial;fontSize=10;align=left;verticalAlign=top;" vertex="1" parent="1">
          <mxGeometry x="440" y="440" width="287" height="60" as="geometry"/>
        </mxCell>
        <mxCell id="submit-button" value="SEND MESSAGE" style="rounded=0;whiteSpace=wrap;html=1;fillColor=#2563EB;strokeColor=#000000;fontFamily=Arial;fontSize=10;fontStyle=1;align=center;fontColor=#FFFFFF;" vertex="1" parent="1">
          <mxGeometry x="440" y="510" width="120" height="35" as="geometry"/>
        </mxCell>
        <mxCell id="required-note" value="* Required fields" style="text;html=1;strokeColor=none;fillColor=none;align=left;verticalAlign=middle;whiteSpace=wrap;rounded=0;fontFamily=Arial;fontSize=9;" vertex="1" parent="1">
          <mxGeometry x="580" y="510" width="100" height="20" as="geometry"/>
        </mxCell>
        
        <!-- Map Section -->
        <mxCell id="map-section" value="LOCATION MAP" style="rounded=0;whiteSpace=wrap;html=1;fillColor=none;strokeColor=#000000;fontFamily=Arial;fontSize=12;fontStyle=1;align=center;" vertex="1" parent="1">
          <mxGeometry x="80" y="440" width="320" height="200" as="geometry"/>
        </mxCell>
        <mxCell id="map-placeholder" value="[X]&#10;&#10;INTERACTIVE MAP&#10;&#10;(Google Maps Embed)&#10;&#10;📍 Our Location" style="rounded=0;whiteSpace=wrap;html=1;fillColor=#f0f8ff;strokeColor=#000000;fontFamily=Arial;fontSize=10;align=center;" vertex="1" parent="1">
          <mxGeometry x="100" y="460" width="280" height="160" as="geometry"/>
        </mxCell>
        
        <!-- Social Media Section -->
        <mxCell id="social-section" value="CONNECT WITH US" style="rounded=0;whiteSpace=wrap;html=1;fillColor=none;strokeColor=#000000;fontFamily=Arial;fontSize=12;fontStyle=1;align=center;" vertex="1" parent="1">
          <mxGeometry x="80" y="660" width="667" height="100" as="geometry"/>
        </mxCell>
        <mxCell id="social-content" value="Follow us on social media for updates and insights&#10;&#10;[Facebook] [Twitter] [LinkedIn] [Instagram] [YouTube]" style="rounded=0;whiteSpace=wrap;html=1;fillColor=none;strokeColor=#000000;fontFamily=Arial;fontSize=10;align=center;" vertex="1" parent="1">
          <mxGeometry x="100" y="680" width="627" height="60" as="geometry"/>
        </mxCell>
        
        <!-- FAQ Section -->
        <mxCell id="faq-section" value="FREQUENTLY ASKED QUESTIONS" style="rounded=0;whiteSpace=wrap;html=1;fillColor=none;strokeColor=#000000;fontFamily=Arial;fontSize=12;fontStyle=1;align=center;" vertex="1" parent="1">
          <mxGeometry x="80" y="780" width="667" height="120" as="geometry"/>
        </mxCell>
        <mxCell id="faq-content" value="❓ What is your typical project timeline?&#10;Most projects are completed within 4-8 weeks depending on complexity.&#10;&#10;❓ Do you offer ongoing support?&#10;Yes, we provide 30 days of free support and ongoing maintenance packages.&#10;&#10;❓ What technologies do you work with?&#10;We specialize in modern web technologies, mobile development, and cloud solutions." style="rounded=0;whiteSpace=wrap;html=1;fillColor=none;strokeColor=#000000;fontFamily=Arial;fontSize=9;align=left;verticalAlign=top;" vertex="1" parent="1">
          <mxGeometry x="100" y="800" width="627" height="80" as="geometry"/>
        </mxCell>
        
        <!-- Footer -->
        <mxCell id="footer-section-5" value="FOOTER" style="rounded=0;whiteSpace=wrap;html=1;fillColor=none;strokeColor=#000000;fontFamily=Arial;fontSize=12;fontStyle=1;align=center;" vertex="1" parent="1">
          <mxGeometry x="80" y="920" width="667" height="80" as="geometry"/>
        </mxCell>
        <mxCell id="footer-content-5" value="Contact Info | Social Media Links | Copyright | Site Map" style="rounded=0;whiteSpace=wrap;html=1;fillColor=none;strokeColor=#000000;fontFamily=Arial;fontSize=10;align=center;" vertex="1" parent="1">
          <mxGeometry x="100" y="930" width="627" height="60" as="geometry"/>
        </mxCell>
      </root>
    </mxGraphModel>
  </diagram>
</mxfile>